<svg xmlns="http://www.w3.org/2000/svg" viewBox="0 0 1920 600" width="1920" height="600">
  <defs>
    <linearGradient id="hiwBg" x1="0%" y1="0%" x2="100%" y2="100%">
      <stop offset="0%" style="stop-color:#F0F7FF;stop-opacity:1" />
      <stop offset="100%" style="stop-color:#CAF0F8;stop-opacity:1" />
    </linearGradient>
  </defs>

  <!-- Subtle background -->
  <rect width="1920" height="600" fill="url(#hiwBg)"/>

  <!-- Very subtle dot grid -->
  <g opacity="0.06" fill="#0077B6">
    <!-- Row 1 -->
    <circle cx="60" cy="60" r="2.5"/>
    <circle cx="180" cy="60" r="2.5"/>
    <circle cx="300" cy="60" r="2.5"/>
    <circle cx="420" cy="60" r="2.5"/>
    <circle cx="540" cy="60" r="2.5"/>
    <circle cx="660" cy="60" r="2.5"/>
    <circle cx="780" cy="60" r="2.5"/>
    <circle cx="900" cy="60" r="2.5"/>
    <circle cx="1020" cy="60" r="2.5"/>
    <circle cx="1140" cy="60" r="2.5"/>
    <circle cx="1260" cy="60" r="2.5"/>
    <circle cx="1380" cy="60" r="2.5"/>
    <circle cx="1500" cy="60" r="2.5"/>
    <circle cx="1620" cy="60" r="2.5"/>
    <circle cx="1740" cy="60" r="2.5"/>
    <circle cx="1860" cy="60" r="2.5"/>
    <!-- Row 2 -->
    <circle cx="60" cy="180" r="2.5"/>
    <circle cx="180" cy="180" r="2.5"/>
    <circle cx="300" cy="180" r="2.5"/>
    <circle cx="420" cy="180" r="2.5"/>
    <circle cx="540" cy="180" r="2.5"/>
    <circle cx="660" cy="180" r="2.5"/>
    <circle cx="780" cy="180" r="2.5"/>
    <circle cx="900" cy="180" r="2.5"/>
    <circle cx="1020" cy="180" r="2.5"/>
    <circle cx="1140" cy="180" r="2.5"/>
    <circle cx="1260" cy="180" r="2.5"/>
    <circle cx="1380" cy="180" r="2.5"/>
    <circle cx="1500" cy="180" r="2.5"/>
    <circle cx="1620" cy="180" r="2.5"/>
    <circle cx="1740" cy="180" r="2.5"/>
    <circle cx="1860" cy="180" r="2.5"/>
    <!-- Row 3 -->
    <circle cx="60" cy="300" r="2.5"/>
    <circle cx="180" cy="300" r="2.5"/>
    <circle cx="300" cy="300" r="2.5"/>
    <circle cx="420" cy="300" r="2.5"/>
    <circle cx="540" cy="300" r="2.5"/>
    <circle cx="660" cy="300" r="2.5"/>
    <circle cx="780" cy="300" r="2.5"/>
    <circle cx="900" cy="300" r="2.5"/>
    <circle cx="1020" cy="300" r="2.5"/>
    <circle cx="1140" cy="300" r="2.5"/>
    <circle cx="1260" cy="300" r="2.5"/>
    <circle cx="1380" cy="300" r="2.5"/>
    <circle cx="1500" cy="300" r="2.5"/>
    <circle cx="1620" cy="300" r="2.5"/>
    <circle cx="1740" cy="300" r="2.5"/>
    <circle cx="1860" cy="300" r="2.5"/>
    <!-- Row 4 -->
    <circle cx="60" cy="420" r="2.5"/>
    <circle cx="180" cy="420" r="2.5"/>
    <circle cx="300" cy="420" r="2.5"/>
    <circle cx="420" cy="420" r="2.5"/>
    <circle cx="540" cy="420" r="2.5"/>
    <circle cx="660" cy="420" r="2.5"/>
    <circle cx="780" cy="420" r="2.5"/>
    <circle cx="900" cy="420" r="2.5"/>
    <circle cx="1020" cy="420" r="2.5"/>
    <circle cx="1140" cy="420" r="2.5"/>
    <circle cx="1260" cy="420" r="2.5"/>
    <circle cx="1380" cy="420" r="2.5"/>
    <circle cx="1500" cy="420" r="2.5"/>
    <circle cx="1620" cy="420" r="2.5"/>
    <circle cx="1740" cy="420" r="2.5"/>
    <circle cx="1860" cy="420" r="2.5"/>
    <!-- Row 5 -->
    <circle cx="60" cy="540" r="2.5"/>
    <circle cx="180" cy="540" r="2.5"/>
    <circle cx="300" cy="540" r="2.5"/>
    <circle cx="420" cy="540" r="2.5"/>
    <circle cx="540" cy="540" r="2.5"/>
    <circle cx="660" cy="540" r="2.5"/>
    <circle cx="780" cy="540" r="2.5"/>
    <circle cx="900" cy="540" r="2.5"/>
    <circle cx="1020" cy="540" r="2.5"/>
    <circle cx="1140" cy="540" r="2.5"/>
    <circle cx="1260" cy="540" r="2.5"/>
    <circle cx="1380" cy="540" r="2.5"/>
    <circle cx="1500" cy="540" r="2.5"/>
    <circle cx="1620" cy="540" r="2.5"/>
    <circle cx="1740" cy="540" r="2.5"/>
    <circle cx="1860" cy="540" r="2.5"/>
  </g>

  <!-- Subtle diagonal accent lines -->
  <line x1="0" y1="600" x2="300" y2="0" stroke="#0077B6" stroke-width="1" opacity="0.04"/>
  <line x1="400" y1="600" x2="700" y2="0" stroke="#0077B6" stroke-width="1" opacity="0.04"/>
  <line x1="800" y1="600" x2="1100" y2="0" stroke="#0077B6" stroke-width="1" opacity="0.04"/>
  <line x1="1200" y1="600" x2="1500" y2="0" stroke="#0077B6" stroke-width="1" opacity="0.04"/>
  <line x1="1600" y1="600" x2="1920" y2="0" stroke="#0077B6" stroke-width="1" opacity="0.04"/>

  <!-- Bottom wave accent -->
  <path d="M 0 550 Q 480 520 960 550 Q 1440 580 1920 550 L 1920 600 L 0 600 Z" fill="#00B4D8" opacity="0.05"/>
</svg>
