<svg xmlns="http://www.w3.org/2000/svg" viewBox="0 0 200 200" width="200" height="200">
  <defs>
    <linearGradient id="g2" x1="0%" y1="0%" x2="100%" y2="100%">
      <stop offset="0%" style="stop-color:#0077B6"/>
      <stop offset="100%" style="stop-color:#00B4D8"/>
    </linearGradient>
    <marker id="arrow" markerWidth="8" markerHeight="8" refX="6" refY="3" orient="auto">
      <path d="M 0 0 L 6 3 L 0 6 z" fill="#0077B6" opacity="0.85"/>
    </marker>
  </defs>
  <!-- Structured workflow — pipeline with arrows -->
  <!-- Step nodes -->
  <rect x="25" y="85" width="35" height="30" rx="8" fill="url(#g2)" opacity="0.9"/>
  <rect x="83" y="60" width="35" height="30" rx="8" fill="#F4A261" opacity="0.9"/>
  <rect x="83" y="110" width="35" height="30" rx="8" fill="#F4A261" opacity="0.9"/>
  <rect x="140" y="85" width="35" height="30" rx="8" fill="url(#g2)" opacity="0.9"/>
  <!-- Arrows -->
  <line x1="60" y1="100" x2="80" y2="82" stroke="#0077B6" stroke-width="2.5" marker-end="url(#arrow)" opacity="0.8"/>
  <line x1="60" y1="100" x2="80" y2="118" stroke="#0077B6" stroke-width="2.5" marker-end="url(#arrow)" opacity="0.8"/>
  <line x1="118" y1="75" x2="137" y2="92" stroke="#0077B6" stroke-width="2.5" marker-end="url(#arrow)" opacity="0.8"/>
  <line x1="118" y1="125" x2="137" y2="108" stroke="#0077B6" stroke-width="2.5" marker-end="url(#arrow)" opacity="0.8"/>
  <!-- Step labels (dots) -->
  <circle cx="42" cy="100" r="4" fill="white" opacity="0.8"/>
  <circle cx="100" cy="75" r="4" fill="white" opacity="0.8"/>
  <circle cx="100" cy="125" r="4" fill="white" opacity="0.8"/>
  <circle cx="157" cy="100" r="4" fill="white" opacity="0.8"/>
</svg>
